<svg width="830" height="132" viewBox="0 0 830 132" fill="none" xmlns="http://www.w3.org/2000/svg">
<path d="M0 0H830V132H0V0Z" fill="url(#paint0_linear_1375_106145)"/>
<path opacity="0.4" d="M271.673 35.918H179.225C178.163 35.918 177.738 34.435 178.163 33.248C179.225 30.578 181.988 27.019 187.301 28.205C191.977 29.095 196.227 28.798 199.84 24.645C203.878 19.9 209.191 11 218.755 11C228.319 11 234.906 28.205 242.555 28.205C248.718 28.205 249.568 24.645 253.181 24.645C258.069 24.645 258.494 31.468 262.957 31.468C264.87 31.468 269.757 30.875 272.308 34.138C272.735 34.731 272.31 35.918 271.673 35.918Z" fill="white"/>
<path opacity="0.3" fill-rule="evenodd" clip-rule="evenodd" d="M0 57.554V27.2305C1.11798 27.0803 2.28601 27 3.51067 27C15.2339 27 21.9776 33.9504 27.8801 40.0337C32.6777 44.9783 36.9195 49.35 42.8277 48.951C52.1787 48.358 56.8537 52.808 58.7667 55.477C59.1917 56.367 58.7667 57.554 58.1287 57.554H0Z" fill="white"/>
<path opacity="0.5" d="M764.536 50H597.21C595.291 50 594.531 48.392 595.291 47.1069C597.209 44.2138 602.223 40.3564 611.834 41.6426C620.304 42.6069 627.996 42.2851 634.53 37.7851C641.842 32.6426 651.453 23 668.756 23C686.058 23 697.986 41.6458 711.849 41.6458C722.999 41.6458 724.537 37.7884 731.071 37.7884C739.921 37.7884 740.681 45.1814 748.772 45.1814C752.229 45.1814 761.079 44.5389 765.694 48.0746C766.455 48.7138 765.694 50 764.536 50Z" fill="white"/>
<defs>
<linearGradient id="paint0_linear_1375_106145" x1="415" y1="0" x2="415" y2="132" gradientUnits="userSpaceOnUse">
<stop stop-color="#CFECEF"/>
<stop offset="1" stop-color="#CFECEF" stop-opacity="0"/>
</linearGradient>
</defs>
</svg>
