<svg width="232" height="175" viewBox="0 0 232 175" fill="none" xmlns="http://www.w3.org/2000/svg">
<path opacity="0.2" d="M6.23468 174.454L225.243 174.454C226.296 174.454 227.149 173.599 227.149 172.545C227.149 171.49 226.296 170.636 225.243 170.636L6.23468 170.636C5.18201 170.636 4.32863 171.49 4.32863 172.545C4.32863 173.599 5.18201 174.454 6.23468 174.454Z" fill="black"/>
<path d="M157.015 160.049H215.085V126.616H157.015V160.049Z" fill="black" stroke="#231F20" stroke-width="0.72" stroke-miterlimit="10"/>
<path d="M26.0412 160.052H84.1063V126.619H18.811L26.0412 160.052Z" fill="black" stroke="#231F20" stroke-width="0.72" stroke-miterlimit="10"/>
<path d="M228.395 124.815L231.255 141.407L226.34 142.462L223.508 125.237L228.395 124.815Z" fill="#141414"/>
<path d="M0.000445946 153.969C-0.00808727 154.319 0.106073 154.66 0.323034 154.934C0.539994 155.208 0.845998 155.397 1.18773 155.468L26.4348 161.755L26.5999 161.787H28.6497C28.781 161.789 28.9111 161.762 29.0315 161.71C29.1519 161.658 29.2599 161.58 29.3484 161.483C29.4369 161.386 29.5038 161.271 29.5449 161.146C29.586 161.021 29.6002 160.889 29.5867 160.758C29.4685 159.599 29.4099 158.435 29.411 157.27C29.411 143.863 37.0991 132.994 46.5814 132.994H56.1009C65.5779 132.994 73.2713 143.863 73.2713 157.27C73.2713 158.44 73.2145 159.585 73.1009 160.705C73.0899 160.841 73.1071 160.978 73.1517 161.107C73.1962 161.236 73.267 161.354 73.3596 161.455C73.4522 161.555 73.5645 161.635 73.6895 161.689C73.8146 161.744 73.9495 161.772 74.0859 161.771H167.365C167.46 161.772 167.554 161.753 167.64 161.714C167.727 161.675 167.804 161.618 167.867 161.547C167.929 161.475 167.976 161.391 168.003 161.3C168.031 161.209 168.038 161.114 168.025 161.019C167.89 159.769 167.822 158.512 167.823 157.254C167.823 148.919 170.794 141.564 175.324 137.197C178.072 134.53 181.405 132.978 184.993 132.978H194.513C203.99 132.978 211.683 143.847 211.683 157.254C211.684 158.501 211.617 159.748 211.481 160.987C211.469 161.087 211.478 161.189 211.508 161.285C211.537 161.381 211.587 161.469 211.653 161.545C211.72 161.62 211.801 161.681 211.893 161.723C211.984 161.765 212.083 161.787 212.183 161.787H214.766L230.254 160.721C230.432 160.708 230.604 160.645 230.75 160.541C230.896 160.436 231.01 160.293 231.08 160.128C231.15 159.962 231.173 159.781 231.146 159.603C231.12 159.426 231.045 159.259 230.93 159.121L229.923 157.98C229.809 157.851 229.723 157.7 229.668 157.537C229.561 157.221 229.578 156.876 229.716 156.572L231.622 152.38C231.872 151.831 232 151.234 232 150.631V140.573C232.001 140.361 231.927 140.157 231.791 139.995C231.656 139.833 231.468 139.724 231.26 139.687C230.172 139.519 229.168 139.001 228.401 138.21C226.303 135.981 225.441 129.997 225.174 127.192C225.158 127.028 225.169 126.862 225.206 126.701C225.203 126.675 225.203 126.648 225.206 126.621C225.284 126.332 225.445 126.072 225.67 125.874C225.894 125.675 226.172 125.548 226.468 125.507L228.534 125.197C228.623 125.187 228.707 125.152 228.776 125.096C228.846 125.04 228.899 124.966 228.929 124.881C228.959 124.797 228.964 124.706 228.946 124.619C228.927 124.531 228.884 124.451 228.821 124.387C227.677 123.175 226.271 122.243 224.711 121.662C212.364 116.568 167.482 113.411 167.482 113.411C167.482 113.411 165.981 112.281 163.377 110.494C157.563 106.516 146.239 97.7321 133.833 92.6071C126.976 89.7699 119.783 87.578 113.011 86.9381C85.8575 84.3675 61.1748 85.2635 46.1288 85.2635C33.9365 85.2635 17.9109 87.6313 12.9541 88.5326C12.8055 88.5608 12.6685 88.6324 12.5604 88.7384C12.4523 88.8444 12.378 88.98 12.3467 89.1282C12.3154 89.2765 12.3285 89.4307 12.3845 89.5714C12.4405 89.7122 12.5368 89.8332 12.6613 89.9192L14.4182 91.1405C14.5442 91.2269 14.6364 91.3544 14.6791 91.5012C14.7218 91.648 14.7124 91.8051 14.6525 91.9458L6.61303 111.737L4.16393 117.352C3.94451 117.857 3.83036 118.402 3.8285 118.952V119.928C3.82875 120.164 3.92259 120.391 4.08939 120.558C4.16971 120.64 4.26573 120.706 4.3718 120.751C4.47787 120.796 4.59184 120.819 4.70699 120.819C5.28732 120.819 11.1758 121.39 11.1758 121.971L5.75584 135.245C5.7567 135.631 5.61079 136.003 5.34775 136.285C5.08472 136.568 4.72427 136.739 4.33962 136.765L3.86577 136.802L2.87548 136.871C2.74597 136.877 2.61744 136.897 2.49214 136.93C1.88022 137.061 1.33077 137.396 0.933375 137.881C0.535985 138.365 0.314106 138.97 0.303922 139.597L0.181467 145.5L0.000445946 153.969Z" fill="white"/>
<path d="M56.0105 126.55C58.8749 128.758 68.9801 132.891 71.8871 138.176C75.2333 144.356 76.8866 151.313 76.6788 158.34L106.494 160.239C106.494 160.239 108.959 152.837 108.959 136.272C108.959 130.838 108.24 124.06 107.277 117.409C105.36 104.194 102.485 91.4694 102.304 90.7441L98.7314 90.6108C85.1868 90.1468 75.401 90.0774 64.9923 90.1894C63.8636 90.1894 62.758 90.2055 61.6754 90.2375L61.5689 90.2801L55.8774 114.924L48.9028 121.649C48.4236 123.484 54.5251 125.404 56.0105 126.55Z" fill="white"/>
<path d="M205.374 127.133C204.942 127.49 204.729 127.666 204.394 127.959C204.325 128.017 204.27 128.09 204.233 128.171C204.195 128.253 204.176 128.342 204.176 128.431C204.176 128.521 204.195 128.61 204.233 128.691C204.27 128.773 204.325 128.845 204.394 128.903C211.99 135.247 221.393 139.025 231.259 139.697C230.171 139.529 229.168 139.011 228.4 138.22C226.303 135.991 225.44 130.007 225.174 127.202C225.154 127.01 225.172 126.816 225.227 126.631L221.186 125.48C221.186 125.48 210.841 125.458 205.374 127.133Z" fill="#B7B7B7"/>
<path d="M160.14 157.586C162.759 145.746 163.232 133.531 161.535 121.524C161.394 120.671 161.049 119.866 160.529 119.177C154.821 111.471 145.541 106.703 145.541 106.703L104.737 110.367L105.701 157.9L160.14 157.586Z" fill="white"/>
<path d="M0.000445946 153.97C-0.00808727 154.32 0.106073 154.661 0.323034 154.935C0.539994 155.209 0.845998 155.398 1.18773 155.469L26.4348 161.756L26.5999 161.788H28.6497C28.781 161.79 28.9111 161.764 29.0315 161.711C29.1519 161.659 29.2599 161.581 29.3484 161.484C29.4369 161.387 29.5038 161.272 29.5449 161.147C29.586 161.022 29.6002 160.89 29.5867 160.759C29.4685 159.6 29.4099 158.436 29.411 157.271C29.411 143.864 37.0991 132.995 46.5814 132.995H56.1009C65.5779 132.995 73.2713 143.864 73.2713 157.271C73.2713 158.441 73.2145 159.586 73.1009 160.706C73.0899 160.842 73.1071 160.979 73.1517 161.108C73.1962 161.237 73.267 161.356 73.3596 161.456C73.4522 161.556 73.5645 161.636 73.6896 161.691C73.8146 161.745 73.9495 161.773 74.0859 161.772H167.365C167.46 161.773 167.554 161.754 167.64 161.715C167.727 161.676 167.804 161.619 167.867 161.548C167.929 161.477 167.976 161.392 168.003 161.301C168.031 161.21 168.038 161.115 168.025 161.02C167.89 159.77 167.822 158.513 167.823 157.255C167.823 148.92 170.794 141.566 175.324 137.198L175.537 131.369C175.537 131.369 48.9559 121.903 24.5181 120.5L3.8498 128.014L2.49214 136.947C4.39819 137.747 5.15421 136.728 4.33962 136.782L3.86577 136.819L2.87548 136.888C2.74597 136.894 2.61744 136.914 2.49214 136.947C1.88022 137.078 1.33077 137.414 0.933375 137.898C0.535985 138.382 0.314106 138.987 0.303922 139.614L0.181467 145.517L0.000445946 153.97Z" fill="white"/>
<path d="M159.282 161.787H167.364C167.459 161.788 167.553 161.768 167.64 161.73C167.727 161.691 167.804 161.634 167.866 161.562C167.929 161.491 167.976 161.407 168.003 161.316C168.03 161.225 168.038 161.129 168.025 161.035C167.889 159.785 167.822 158.528 167.822 157.27C167.822 148.934 170.793 141.58 175.324 137.212L175.537 131.383L162.461 130.487C163.063 143.884 160.443 156.827 159.282 161.787Z" fill="white"/>
<path d="M0.000445946 153.97C-0.00808727 154.32 0.106073 154.661 0.323034 154.935C0.539994 155.209 0.845998 155.398 1.18773 155.469L26.5945 161.789H28.6497C28.7805 161.789 28.91 161.762 29.0298 161.71C29.1496 161.657 29.2569 161.579 29.3448 161.482C29.4327 161.385 29.4992 161.271 29.54 161.146C29.5807 161.021 29.5948 160.89 29.5814 160.759C29.4632 159.601 29.4046 158.436 29.4057 157.272C29.4057 143.864 37.0937 132.995 46.576 132.995H56.0956C65.5726 132.995 73.266 143.864 73.266 157.272C73.266 158.441 73.2092 159.586 73.0956 160.706C73.0845 160.842 73.1018 160.979 73.1463 161.108C73.1909 161.237 73.2617 161.356 73.3542 161.456C73.4468 161.556 73.5592 161.636 73.6842 161.691C73.8092 161.745 73.9442 161.773 74.0805 161.773H166.375L167.439 148.051L77.7915 140.472C77.284 140.429 76.7984 140.245 76.3887 139.942C75.979 139.639 75.661 139.228 75.4702 138.755C73.4204 133.683 77.4241 125.023 46.2939 122.932C26.1313 121.577 14.0615 119.839 14.0615 119.839L9.4295 127.572C9.4295 127.572 2.93937 136.867 2.50812 136.915C1.89619 137.047 1.34674 137.382 0.949347 137.866C0.551957 138.35 0.33008 138.955 0.319896 139.582L0.197439 145.485L0.000445946 153.97Z" fill="white"/>
<path d="M159.282 161.788H166.374L167.439 148.067L161.753 147.603C161.189 152.373 160.364 157.109 159.282 161.788Z" fill="white"/>
<path d="M0.000445946 153.968C-0.00808727 154.317 0.106073 154.659 0.323034 154.933C0.539994 155.206 0.845998 155.395 1.18773 155.466L26.4348 161.754L26.5999 161.786H28.655C28.7858 161.787 28.9154 161.76 29.0351 161.707C29.1549 161.654 29.2622 161.577 29.3501 161.48C29.438 161.383 29.5045 161.268 29.5453 161.143C29.5861 161.019 29.6002 160.887 29.5867 160.757C29.4685 159.598 29.4099 158.434 29.411 157.269C29.4093 155.914 29.4893 154.561 29.6506 153.216L26.2698 152.912L17.3625 151.141C16.8185 150.997 16.3178 150.723 15.9037 150.341L5.92089 146.774C5.45321 146.313 4.86707 145.992 4.22781 145.846L0.181467 145.488L0.000445946 153.968Z" fill="#141414"/>
<path d="M13.109 116.281L20.5628 118.948C20.8565 119.054 21.1165 119.236 21.3158 119.477C21.5151 119.718 21.6463 120.008 21.6957 120.316C21.7452 120.625 21.7111 120.942 21.5971 121.233C21.483 121.524 21.2932 121.779 21.0473 121.972L13.7319 127.646C12.8335 128.418 11.6889 128.841 10.5055 128.841H4.6915C4.46839 128.841 4.25443 128.752 4.09667 128.594C3.93891 128.436 3.85028 128.221 3.85028 127.998V119.966C3.85087 119.777 3.89485 119.589 3.97883 119.419C4.06282 119.249 4.18458 119.101 4.33478 118.985C5.43155 118.126 8.38113 116.281 13.109 116.281Z" fill="#141414"/>
<path d="M6.63452 111.737L11.0482 111.433C11.9839 111.368 12.8858 111.056 13.6628 110.53C14.4397 110.004 15.064 109.281 15.4726 108.435L20.9778 96.9853C21.1164 96.6982 21.1972 96.3866 21.2155 96.0682C21.2338 95.7498 21.1893 95.4309 21.0845 95.1297C20.9796 94.8286 20.8166 94.5511 20.6046 94.3131C20.3926 94.0751 20.1359 93.8814 19.849 93.7429L14.4397 91.167C14.5657 91.2534 14.6579 91.3809 14.7006 91.5277C14.7433 91.6745 14.7339 91.8316 14.674 91.9723L6.63452 111.737Z" fill="#141414"/>
<path d="M32.1898 110.551L46.911 114.662C47.2097 114.747 47.5169 114.797 47.8268 114.812L55.8556 114.929L59.8966 115.116L100.93 117.121L107.255 117.414L112.1 117.638L138.151 118.838L145.541 119.179L148.964 119.339L157.169 119.718C157.329 119.721 157.487 119.678 157.624 119.594C157.761 119.511 157.872 119.39 157.944 119.247C158.016 119.103 158.046 118.942 158.03 118.782C158.014 118.622 157.954 118.469 157.855 118.342C155.191 115.029 152.214 111.983 148.964 109.244C147.846 108.279 146.696 107.351 145.541 106.449C144.79 105.874 144.039 105.303 143.289 104.754C133.205 97.3673 121.193 91.6396 108.799 91.053L106.818 90.9623L105.519 90.9036L102.287 90.7703H101.569L98.7096 90.6583C89.0463 90.3277 82.5349 90.1997 74.3729 90.1943C71.0933 90.1943 67.952 90.1943 64.9705 90.237C63.8418 90.237 62.7361 90.253 61.6536 90.285C60.4876 90.285 59.3535 90.3437 58.2408 90.3437C56.3667 90.3437 48.5349 90.8183 47.896 90.9783C46.2637 91.3274 44.7578 92.1167 43.5408 93.2608L31.3752 107.66C31.1721 107.882 31.029 108.152 30.9595 108.445C30.8899 108.737 30.8963 109.043 30.9779 109.333C31.0595 109.622 31.2137 109.886 31.4258 110.099C31.6379 110.313 31.9009 110.468 32.1898 110.551V110.551Z" fill="#141414"/>
<path opacity="0.05" d="M145.759 123.491C145.759 123.491 143.779 108.238 124.361 105.838C104.944 103.439 79.825 105.838 71.6525 88.186L133.333 71.0723L166.241 102.415L155.092 133.4L145.759 123.491Z" fill="white"/>
<path d="M98.7097 90.6348L100.93 117.124L112.111 117.657L106.829 90.9921C104.075 90.8427 101.368 90.7236 98.7097 90.6348Z" fill="#B7B7B7"/>
<path d="M59.924 115.169L67.037 115.494L72.1908 90.1621C69.8481 90.1621 67.6493 90.1621 65.509 90.2101L59.924 115.169Z" fill="#B7B7B7"/>
<path d="M113.323 124.513L120.838 124.959C121.545 125.001 122.153 124.461 122.194 123.752C122.236 123.044 121.697 122.435 120.989 122.393L113.474 121.947C112.767 121.905 112.159 122.446 112.118 123.154C112.076 123.863 112.615 124.471 113.323 124.513Z" fill="#999999"/>
<path d="M160.545 112.645C163.345 114.656 165.416 117.781 166.401 119.418C166.602 119.754 166.881 120.036 167.213 120.242C167.546 120.447 167.923 120.569 168.313 120.597C196.291 122.661 209.575 125.722 209.575 125.722L221.203 125.471L225.223 126.703C225.289 126.397 225.448 126.118 225.677 125.904C225.906 125.691 226.196 125.553 226.506 125.509L228.571 125.199C228.66 125.188 228.743 125.152 228.812 125.096C228.881 125.04 228.933 124.965 228.962 124.881C228.992 124.797 228.997 124.707 228.978 124.62C228.959 124.533 228.916 124.453 228.854 124.389C227.712 123.177 226.307 122.245 224.749 121.663C212.402 116.57 167.519 113.413 167.519 113.413C167.519 113.413 166.018 112.283 163.415 110.496C160.811 111.093 159.389 111.808 160.545 112.645Z" fill="white"/>
<path d="M205.374 127.133C205.374 127.133 210.288 131.4 215.927 132.802C218.236 133.493 220.493 134.352 222.678 135.373C222.882 135.463 223.107 135.495 223.328 135.463C223.549 135.432 223.757 135.339 223.928 135.195C224.099 135.051 224.226 134.862 224.295 134.649C224.363 134.436 224.371 134.209 224.317 133.992L222.486 126.749C222.408 126.437 222.245 126.152 222.016 125.926C221.787 125.7 221.5 125.542 221.187 125.469C219.834 125.15 217.258 124.568 214.047 123.923H213.994C209.17 122.947 205.374 127.133 205.374 127.133Z" fill="#141414"/>
<path d="M130.415 93.4224C139.466 97.2409 156.051 109.651 160.544 112.621C161.3 113.123 162.187 113.39 163.094 113.389H167.503C167.503 113.389 151.813 100.003 133.854 92.5905H130.58C130.475 92.5813 130.371 92.6112 130.287 92.6743C130.203 92.7374 130.146 92.8293 130.125 92.9324C130.105 93.0355 130.123 93.1425 130.176 93.2329C130.23 93.3234 130.315 93.3909 130.415 93.4224Z" fill="#141414"/>
<path d="M167.823 157.299L74.4266 157.145C74.4266 157.145 73.5055 157.065 73.1009 160.707C73.0844 160.846 73.0974 160.987 73.139 161.12C73.1806 161.254 73.25 161.377 73.3425 161.482C73.435 161.587 73.5486 161.67 73.6758 161.728C73.803 161.786 73.9409 161.816 74.0805 161.816H167.407C167.499 161.817 167.59 161.798 167.674 161.762C167.758 161.725 167.833 161.672 167.896 161.605C167.958 161.537 168.006 161.458 168.037 161.372C168.067 161.285 168.08 161.193 168.073 161.102L167.823 157.299Z" fill="#B7B7B7"/>
<path d="M219.765 157.536H229.668C229.561 157.22 229.578 156.875 229.716 156.571L231.622 152.379C231.871 151.83 232 151.234 232 150.63V144.849L226.085 144.108C225.606 144.006 225.107 144.066 224.667 144.28C224.226 144.493 223.869 144.847 223.652 145.286L218.556 155.59C218.455 155.796 218.408 156.024 218.419 156.253C218.43 156.482 218.499 156.705 218.62 156.9C218.741 157.095 218.91 157.255 219.11 157.367C219.311 157.478 219.536 157.537 219.765 157.536Z" fill="#141414"/>
<path d="M218.987 131.464C219.752 131.464 220.372 130.843 220.372 130.077C220.372 129.311 219.752 128.69 218.987 128.69C218.223 128.69 217.603 129.311 217.603 130.077C217.603 130.843 218.223 131.464 218.987 131.464Z" fill="white" stroke="#231F20" stroke-width="0.72" stroke-miterlimit="10"/>
<path d="M214.217 130.35C215.567 130.35 216.661 129.254 216.661 127.902C216.661 126.55 215.567 125.454 214.217 125.454C212.867 125.454 211.773 126.55 211.773 127.902C211.773 129.254 212.867 130.35 214.217 130.35Z" fill="#999999"/>
<path d="M148.964 109.24V119.336L157.169 119.714C157.329 119.717 157.487 119.674 157.624 119.591C157.761 119.507 157.872 119.387 157.944 119.243C158.016 119.099 158.046 118.938 158.03 118.778C158.014 118.618 157.954 118.465 157.855 118.338C155.191 115.026 152.214 111.979 148.964 109.24V109.24Z" fill="#B7B7B7"/>
<path d="M142.384 114.004V116.015C142.383 116.304 142.439 116.59 142.549 116.857C142.659 117.124 142.821 117.366 143.025 117.57C143.229 117.774 143.471 117.936 143.737 118.046C144.004 118.157 144.289 118.213 144.577 118.212H152.729C153.032 118.213 153.329 118.119 153.578 117.945C153.826 117.77 154.015 117.523 154.118 117.236V117.236C154.198 117.013 154.222 116.775 154.19 116.54C154.158 116.306 154.07 116.082 153.934 115.889C153.798 115.695 153.617 115.538 153.408 115.429C153.198 115.32 152.965 115.263 152.729 115.263H152.09C151.903 115.263 151.724 115.189 151.591 115.057C151.458 114.925 151.383 114.746 151.382 114.559V111.754C151.382 111.392 151.238 111.045 150.983 110.789C150.727 110.533 150.38 110.389 150.019 110.389H147.303C146.736 110.39 146.178 110.527 145.674 110.789L143.694 111.855C143.303 112.062 142.974 112.371 142.744 112.75C142.513 113.128 142.389 113.561 142.384 114.004Z" fill="#999999"/>
<g opacity="0.1">
<g opacity="0.1">
<path opacity="0.1" d="M151.792 112.084C151.792 112.084 147.639 109.604 141.724 115.124L143.002 107.839L152.053 107.759L151.792 112.084Z" fill="white"/>
</g>
</g>
<path d="M26.0622 156.59C26.0611 158.318 26.175 160.044 26.4029 161.757C26.4029 161.757 26.4029 161.757 26.4029 161.789H28.6125C28.7433 161.79 28.8729 161.763 28.9926 161.71C29.1124 161.658 29.2197 161.58 29.3076 161.483C29.3955 161.386 29.462 161.271 29.5028 161.147C29.5435 161.022 29.5577 160.89 29.5442 160.76C29.4324 159.624 29.3738 158.456 29.3738 157.272C29.373 155.918 29.4513 154.564 29.6081 153.219C30.9711 141.737 38.0309 132.996 46.5389 132.996H56.0584C65.5407 132.996 73.2288 143.865 73.2288 157.272C73.2288 158.442 73.172 159.587 73.0584 160.707C73.0474 160.843 73.0646 160.98 73.1092 161.109C73.1537 161.238 73.2245 161.356 73.3171 161.457C73.4097 161.557 73.522 161.637 73.647 161.691C73.7721 161.746 73.907 161.774 74.0434 161.773H76.173C76.4054 160.05 76.521 158.313 76.5191 156.574C76.5191 141.145 67.665 128.634 56.7559 128.634H45.8361C35.8001 128.634 27.5157 139.204 26.2432 152.899C26.1225 154.115 26.0622 155.345 26.0622 156.59Z" fill="#B7B7B7"/>
<path d="M164.489 156.588C164.488 158.327 164.602 160.064 164.83 161.788H167.343C167.437 161.788 167.53 161.768 167.616 161.729C167.702 161.69 167.778 161.634 167.841 161.563C167.903 161.492 167.95 161.409 167.978 161.319C168.006 161.229 168.015 161.135 168.003 161.041C167.868 159.789 167.801 158.53 167.801 157.271C167.801 143.863 175.489 132.995 184.971 132.995H194.491C203.968 132.995 211.661 143.863 211.661 157.271C211.662 158.518 211.595 159.764 211.459 161.004C211.447 161.104 211.456 161.206 211.486 161.302C211.516 161.399 211.567 161.488 211.634 161.563C211.7 161.639 211.783 161.699 211.875 161.741C211.967 161.782 212.066 161.804 212.167 161.804H214.632C214.858 160.08 214.97 158.343 214.968 156.604C214.968 141.175 206.119 128.664 195.204 128.664H184.274C173.359 128.648 164.489 141.159 164.489 156.588Z" fill="#B7B7B7"/>
<path d="M70.6177 124.511L78.1329 124.957C78.8403 124.999 79.4477 124.459 79.4896 123.75C79.5315 123.042 78.992 122.433 78.2846 122.391L70.7695 121.945C70.0621 121.903 69.4546 122.444 69.4127 123.152C69.3708 123.861 69.9103 124.469 70.6177 124.511Z" fill="#999999"/>
<path d="M216.368 131.784C216.368 131.784 217.252 129.539 214.611 128.259C213.88 127.916 213.29 127.33 212.941 126.601C212.591 125.872 212.504 125.045 212.695 124.259L209.096 128.259L211.257 131.864L216.368 131.784Z" fill="#999999"/>
<g opacity="0.56">
<g opacity="0.56">
<g style="mix-blend-mode:multiply" opacity="0.17">
<path d="M119.506 125.614C119.506 125.614 115.667 124.974 115.247 121.929L112.473 121.033L110.151 123.038L112.473 126.398L119.506 125.614Z" fill="#141414"/>
</g>
</g>
</g>
<g opacity="0.56">
<g opacity="0.56">
<g style="mix-blend-mode:multiply" opacity="0.17">
<path d="M76.8173 125.614C76.8173 125.614 72.9786 124.974 72.558 121.929L69.7841 121.033L67.4628 123.038L69.7841 126.398L76.8173 125.614Z" fill="#141414"/>
</g>
</g>
</g>
<path opacity="0.05" d="M26.4511 120.251C26.4511 120.251 23.9328 125.349 16.2607 122.293C6.91152 118.56 11.0111 125.173 11.0111 125.173L7.987 116.64L22.6124 113.878L27.2923 118.56L26.4511 120.251Z" fill="white"/>
<g style="mix-blend-mode:multiply" opacity="0.11">
<path d="M104.396 117.249L101.1 90.7385L98.71 90.6318L100.925 117.121L104.396 117.249Z" fill="#141414"/>
</g>
<g style="mix-blend-mode:multiply" opacity="0.11">
<path d="M67.5538 90.1875L62.6769 115.365L59.9189 115.162L65.504 90.2088L67.5538 90.1875Z" fill="#141414"/>
</g>
<path d="M51.2824 175.005C61.3681 175.005 69.5442 166.815 69.5442 156.712C69.5442 146.61 61.3681 138.42 51.2824 138.42C41.1967 138.42 33.0206 146.61 33.0206 156.712C33.0206 166.815 41.1967 175.005 51.2824 175.005Z" fill="#141414"/>
<path d="M37.4609 156.714C37.461 158.702 37.8891 160.666 38.716 162.472C39.543 164.279 40.7493 165.886 42.2526 167.183C42.9057 167.748 43.6097 168.252 44.3556 168.687C46.5274 169.953 49.0027 170.601 51.515 170.563C54.0273 170.524 56.4816 169.8 58.6137 168.468V168.468C59.397 167.976 60.13 167.408 60.8019 166.772C62.1702 165.48 63.26 163.921 64.0044 162.192C64.7488 160.462 65.132 158.598 65.1304 156.714C65.1216 154.842 64.7434 152.989 64.0177 151.264C63.0559 149.018 61.5187 147.067 59.5619 145.608C57.605 144.149 55.2979 143.234 52.8743 142.955C52.344 142.894 51.8107 142.864 51.277 142.864C50.9682 142.864 50.6594 142.875 50.3506 142.896C47.898 143.063 45.534 143.881 43.5016 145.267C41.4692 146.652 39.8418 148.555 38.7866 150.779C38.4419 151.504 38.1622 152.259 37.9507 153.034C37.622 154.233 37.4572 155.471 37.4609 156.714Z" fill="#7D7D7D"/>
<path d="M45.1603 167.269C47.0744 168.383 49.2556 168.955 51.4695 168.921C53.6833 168.887 55.8461 168.249 57.7253 167.077L52.1509 159.429C52.0759 159.326 51.9774 159.241 51.8636 159.183C51.7498 159.125 51.6238 159.095 51.4961 159.095C51.3683 159.095 51.2424 159.125 51.1286 159.183C51.0147 159.241 50.9163 159.326 50.8412 159.429L45.1603 167.269Z" fill="#141414"/>
<path d="M52.6831 144.591L52.747 153.844C52.7472 153.972 52.7778 154.098 52.8363 154.213C52.8947 154.327 52.9795 154.425 53.0834 154.5C53.1874 154.575 53.3076 154.624 53.4342 154.644C53.5609 154.663 53.6903 154.652 53.8118 154.612L62.5221 151.945C61.6762 149.958 60.3203 148.231 58.5921 146.94C56.864 145.648 54.8252 144.838 52.6831 144.591V144.591Z" fill="#141414"/>
<path d="M54.2372 158.085L59.6625 165.588C61.2097 164.123 62.3464 162.277 62.9592 160.234C63.572 158.191 63.6396 156.023 63.1551 153.946L54.6365 156.842C54.5162 156.883 54.4072 156.951 54.318 157.041C54.2289 157.131 54.1622 157.241 54.1233 157.362C54.0845 157.483 54.0745 157.612 54.0943 157.737C54.1141 157.863 54.163 157.982 54.2372 158.085V158.085Z" fill="#141414"/>
<path d="M39.1013 156.716C39.0987 158.467 39.473 160.198 40.1989 161.791C40.9247 163.384 41.985 164.802 43.3073 165.947L49.116 157.899C49.1903 157.797 49.2397 157.679 49.2602 157.554C49.2806 157.429 49.2716 157.301 49.2338 157.18C49.196 157.059 49.1306 156.949 49.0426 156.858C48.9546 156.767 48.8467 156.698 48.7273 156.657L39.5378 153.457C39.2447 154.518 39.0978 155.614 39.1013 156.716V156.716Z" fill="#141414"/>
<path d="M40.2722 151.483L49.3552 154.358C49.4767 154.398 49.6062 154.409 49.7328 154.39C49.8594 154.37 49.9797 154.321 50.0836 154.246C50.1876 154.171 50.2723 154.073 50.3308 153.958C50.3892 153.844 50.4198 153.718 50.42 153.59L50.4733 144.523C48.3088 144.67 46.2226 145.393 44.4296 146.616C42.6365 147.839 41.2015 149.519 40.2722 151.483Z" fill="#141414"/>
<path d="M189.785 175.005C199.87 175.005 208.046 166.815 208.046 156.712C208.046 146.61 199.87 138.42 189.785 138.42C179.699 138.42 171.523 146.61 171.523 156.712C171.523 166.815 179.699 175.005 189.785 175.005Z" fill="#141414"/>
<path d="M175.958 156.714C175.967 159.181 176.633 161.6 177.887 163.723C179.141 165.846 180.937 167.595 183.091 168.79C185.245 169.986 187.678 170.584 190.14 170.524C192.601 170.464 195.002 169.747 197.095 168.447V168.447C199.084 167.204 200.726 165.475 201.866 163.423C203.005 161.371 203.606 159.063 203.612 156.714C203.614 155.655 203.492 154.599 203.25 153.568C202.538 150.525 200.821 147.812 198.377 145.869C195.933 143.926 192.905 142.867 189.785 142.864C189.471 142.864 189.162 142.864 188.853 142.896C186.397 143.06 184.028 143.876 181.992 145.262C179.956 146.647 178.325 148.552 177.268 150.779C176.927 151.505 176.649 152.26 176.437 153.034C176.112 154.234 175.951 155.472 175.958 156.714Z" fill="#7D7D7D"/>
<path d="M183.656 167.269C185.57 168.383 187.751 168.955 189.965 168.921C192.179 168.887 194.342 168.249 196.221 167.077L190.668 159.429C190.593 159.326 190.495 159.241 190.381 159.183C190.267 159.125 190.141 159.095 190.013 159.095C189.885 159.095 189.76 159.125 189.646 159.183C189.532 159.241 189.433 159.326 189.358 159.429L183.656 167.269Z" fill="#141414"/>
<path d="M191.174 144.591L191.238 153.844C191.239 153.972 191.269 154.098 191.328 154.213C191.386 154.327 191.471 154.425 191.575 154.5C191.679 154.575 191.799 154.624 191.926 154.644C192.052 154.663 192.182 154.652 192.303 154.612L201.008 151.945C200.164 149.958 198.809 148.231 197.082 146.939C195.355 145.647 193.316 144.837 191.174 144.591Z" fill="#141414"/>
<path d="M192.739 158.085L198.159 165.588C199.365 164.449 200.325 163.074 200.981 161.549C201.637 160.024 201.974 158.38 201.971 156.72C201.974 155.786 201.866 154.855 201.652 153.946L193.133 156.842C193.014 156.883 192.905 156.952 192.816 157.042C192.728 157.133 192.662 157.243 192.623 157.364C192.585 157.485 192.576 157.613 192.596 157.738C192.616 157.863 192.665 157.982 192.739 158.085Z" fill="#141414"/>
<path d="M177.598 156.716C177.595 158.467 177.97 160.199 178.697 161.792C179.424 163.385 180.486 164.802 181.809 165.947L187.618 157.899C187.692 157.797 187.741 157.678 187.762 157.553C187.782 157.428 187.772 157.299 187.734 157.179C187.696 157.058 187.63 156.948 187.541 156.857C187.452 156.766 187.344 156.698 187.224 156.657L178.04 153.457C177.745 154.518 177.596 155.614 177.598 156.716V156.716Z" fill="#141414"/>
<path d="M178.774 151.483L187.852 154.358C187.973 154.399 188.103 154.411 188.23 154.393C188.357 154.374 188.478 154.325 188.582 154.249C188.687 154.174 188.771 154.075 188.83 153.96C188.888 153.845 188.918 153.718 188.917 153.59L188.975 144.523C186.811 144.67 184.725 145.393 182.931 146.616C181.138 147.839 179.703 149.519 178.774 151.483Z" fill="#141414"/>
<path opacity="0.06" d="M206.476 120.985C206.476 120.985 174.265 118.755 171.597 117.209C168.93 115.662 174.217 114.11 174.217 114.11L179.28 114.297C179.28 114.297 202.749 116.788 205.549 117.422C208.35 118.057 206.476 120.985 206.476 120.985Z" fill="#141414"/>
<path d="M150.424 90.0218C150.424 90.0218 150.072 91.0884 151.212 92.4643C152.351 93.8402 151.978 95.9681 151.978 95.9681L149.668 95.4028L148.395 91.8723L148.289 89.1045L150.424 90.0218Z" fill="#663326"/>
<g style="mix-blend-mode:multiply" opacity="0.24">
<path d="M150.461 90.5157C150.461 90.5157 149.141 90.713 149.482 93.0809C149.652 94.2702 148.981 92.9422 148.981 92.9422L148.678 89.5664L150.461 89.6304L150.733 90.777L150.461 90.5157Z" fill="#663326"/>
</g>
<path d="M150.408 81.126C151.367 82.7686 152.188 84.4882 152.862 86.267C154.348 90.4375 149.897 90.4002 149.247 90.4162C148.789 90.4162 149.62 93.0347 149.62 93.0347L147.112 94.7679L143.726 84.9871L147.4 80.374L150.408 81.126Z" fill="#FABE78"/>
<path d="M209.101 115.844L206.705 112.863L204.271 116.234L205.336 117.098L206.934 117.887L209.186 117.002L209.101 115.844Z" fill="#FABE78"/>
<path d="M204.49 116.432L205.022 116.842C206.146 116.032 207.152 113.413 207.152 113.413L206.955 113.168" fill="#141414"/>
<path d="M171.8 104.372C171.8 104.372 179.424 96.5483 182.113 93.5617C184.802 90.5752 186.724 88.554 188.917 89.1193C190.786 89.594 193.597 93.3857 193.597 93.3857L188.156 97.7429C188.156 97.7429 187.794 97.6309 187.554 97.5402L185.254 100.996L171.944 107.348L170.416 106.1L171.092 103.796L171.8 104.372Z" fill="#EB008B"/>
<path d="M193.304 106.151C193.304 106.151 180.659 114.002 174.76 116.497C174.76 116.497 171.879 118.529 168.578 115.9C165.278 113.271 164.596 111.97 164.596 111.97L164.016 111.276L168.429 105.799L171.906 105.639C172.63 105.303 189.087 99.7037 189.087 99.7037C190.562 99.236 192.093 98.9652 193.639 98.8984C195.455 98.9518 197.702 101.298 198.809 102.738C199.916 104.178 206.95 113.164 206.95 113.164C206.95 113.164 205.107 116.156 203.968 116.956C201.468 115.515 199.176 113.736 197.158 111.671C195.61 110.026 194.312 108.163 193.304 106.141C193.123 105.762 193.016 105.49 192.968 105.357" fill="#EB008B"/>
<path opacity="0.15" d="M186.852 110.169C186.852 110.169 177.322 116.825 170.757 115.635C167.296 115.011 164.229 111.289 164.229 111.289L163.814 112.02L167.589 119.251L173.392 118.755L183.742 113.481L186.852 110.169Z" fill="#141414"/>
<path opacity="0.15" d="M202.292 116.001C202.292 116.001 195.222 108.988 193.065 105.383C193.058 105.376 193.049 105.372 193.039 105.371C193.029 105.369 193.019 105.371 193.01 105.376C193.002 105.38 192.994 105.388 192.99 105.397C192.986 105.406 192.984 105.416 192.986 105.426C193.183 105.932 193.443 106.631 193.651 107.276L195.302 112.577L199.811 115.777L202.292 116.001Z" fill="#141414"/>
<path opacity="0.15" d="M171.794 104.373L172.327 104.789C172.414 104.346 172.527 103.908 172.667 103.478L171.794 104.373Z" fill="#141414"/>
<path opacity="0.15" d="M184.333 94.3115C184.313 95.2175 184.501 96.1159 184.883 96.9372C185.266 97.7585 185.832 98.4805 186.537 99.0473L187.554 97.538C186.94 97.2998 186.362 96.9787 185.835 96.5834C185.146 96.0779 184.641 95.3606 184.397 94.5408L184.333 94.3115Z" fill="#141414"/>
<path d="M209.069 115.698C209.008 116.042 208.848 116.361 208.609 116.615C208.37 116.869 208.061 117.047 207.722 117.127C206.124 117.661 206.188 116.461 205.358 117.058C205.343 117.074 205.334 117.095 205.334 117.117C205.334 117.139 205.343 117.16 205.358 117.176C205.589 117.435 205.735 117.759 205.778 118.103C205.778 118.578 205.065 119.655 205.698 120.797C205.718 120.831 205.745 120.861 205.779 120.882C205.812 120.904 205.851 120.916 205.89 120.919C206.561 120.983 209.798 121.303 213.631 121.821L218.082 122.263C218.12 122.266 218.157 122.257 218.189 122.238C218.222 122.219 218.247 122.191 218.263 122.157C218.444 121.741 218.87 120.333 216.762 119.634C214.27 118.813 212.737 118.242 211.656 117.501C210.575 116.76 209.069 115.698 209.069 115.698Z" fill="#00ADEE"/>
<g opacity="0.13">
<g opacity="0.13">
<path opacity="0.43" d="M207.082 116.522C207.082 116.522 206.098 118.314 207.45 119.434C208.802 120.554 211.038 121.087 212.433 121.466L204.697 120.575L204.655 116.757L206.145 116.17L207.082 116.522Z" fill="#141414"/>
</g>
</g>
<path d="M185.271 100.996L172.269 105.487" stroke="black" stroke-width="0.13" stroke-linecap="round" stroke-linejoin="round"/>
<path d="M193.326 106.18C193.326 106.18 193.017 105.545 192.974 105.38" stroke="black" stroke-width="0.13" stroke-linecap="round" stroke-linejoin="round"/>
<path d="M170.038 107.383C170.038 107.383 164.293 112.353 165.353 113.164C165.353 113.164 164.288 112.631 164.597 111.948L166.471 108.215L170.038 107.383Z" fill="#141414"/>
<path d="M144.556 99.1688C141.266 97.2489 141.676 94.5611 141.852 94.0118C142.027 93.4625 143.268 91.9372 147.234 93.2118C151.201 94.4864 147.687 94.0811 147.687 94.0811C148.252 93.536 148.944 93.1401 149.699 92.9292C150.101 92.9635 150.496 93.0477 150.876 93.1798C151.408 93.3078 154.693 93.5425 154.693 93.5425C160.097 93.7078 161.615 94.9611 163.409 97.3503C165.097 99.5902 171.571 104.075 171.571 104.075C171.402 105.034 171.032 105.946 170.486 106.751C169.94 107.556 169.23 108.236 168.403 108.747C166.919 109.541 165.628 110.653 164.623 112.005C164.914 112.454 165.255 112.867 165.64 113.237C165.555 113.352 165.446 113.446 165.321 113.515C165.196 113.583 165.058 113.624 164.916 113.634C164.774 113.644 164.632 113.623 164.498 113.573C164.365 113.523 164.244 113.445 164.144 113.344V113.344C164.144 113.344 159.959 108.486 158.857 107.632" fill="#00CBC1"/>
<path d="M184.339 94.3656C184.264 94.0459 184.228 93.7181 184.232 93.3896" stroke="black" stroke-width="0.13" stroke-linecap="round" stroke-linejoin="round"/>
<path d="M205.603 120.475L218.312 121.845L218.535 121.867L218.408 122.432L205.454 120.992L205.433 120.448L205.603 120.475Z" fill="#141414"/>
<path opacity="0.06" d="M166.817 112.618C166.817 112.618 163.686 109.109 161.945 107.856C160.204 106.603 152.639 103.589 147.522 100.923L162.307 115.322L165.938 115.279L166.817 112.618Z" fill="#141414"/>
<path opacity="0.39" d="M167.801 109.055C167.801 109.055 170.463 110.585 169.052 112.527C168.429 113.385 168.014 114.057 165.075 111.391" stroke="white" stroke-width="0.19" stroke-miterlimit="10"/>
<path opacity="0.39" d="M205.177 115.611C204.107 114.814 203.078 113.963 202.094 113.062" stroke="white" stroke-width="0.19" stroke-linecap="round" stroke-linejoin="round"/>
<path d="M188.305 98.8318C188.128 98.4496 188.001 98.0463 187.927 97.6318C187.927 97.6318 192.021 94.6294 192.921 93.8454C193.349 93.524 193.801 93.2352 194.273 92.9814C195.894 91.9868 197.71 91.3554 199.597 91.1309L188.305 98.8318Z" fill="#00ADEE"/>
<path d="M188.102 98.3324C187.772 97.2658 192.362 95.4899 193.559 94.2633C194.757 93.0367 198.245 90.8714 200.002 91.1541C200.403 91.2115 200.782 91.3766 201.098 91.6319C201.414 91.8873 201.655 92.2234 201.796 92.6047C201.868 92.7809 201.902 92.9704 201.895 93.1606C201.889 93.3509 201.842 93.5377 201.759 93.7086C201.375 94.4979 199.395 96.3751 196.69 97.5324C192.931 99.1323 191.446 99.7456 190.727 100.055C190.008 100.364 188.73 100.322 188.102 98.3324Z" fill="#141414"/>
<path d="M149.236 90.4169C148.788 90.4169 148.224 90.3688 147.756 90.3262C147.891 90.5663 148.083 90.7694 148.315 90.9173C148.547 91.0652 148.812 91.1534 149.087 91.1741C149.063 90.9811 149.063 90.7859 149.087 90.5928C149.119 90.4328 149.236 90.4169 149.236 90.4169Z" fill="#141414"/>
<path d="M193.373 93.5195C193.373 93.5195 190.866 95.4128 190.328 95.7701C189.79 96.1274 187.996 97.2633 187.927 97.6313L188.06 97.7113L189.966 96.3781L192.564 94.7782L193.373 93.5195Z" fill="#00ADEE"/>
<path d="M152.489 85.5944L153.064 85.3118C153.086 85.3032 153.105 85.2897 153.121 85.2724C153.137 85.255 153.149 85.2341 153.156 85.2115C153.162 85.1888 153.164 85.1649 153.16 85.1417C153.156 85.1184 153.147 85.0963 153.133 85.0771L151.536 83.2266" fill="#FABE78"/>
<path d="M148.662 77.3018C148.662 77.3018 151.893 80.0216 150.978 81.8455C150.819 82.141 150.591 82.3928 150.312 82.5789C150.034 82.7649 149.714 82.8793 149.38 82.9121C149.19 82.9386 149.008 83.008 148.849 83.1152C148.689 83.2223 148.556 83.3644 148.459 83.5308C148.071 84.2027 147.277 85.2213 145.366 84.6987L147.016 80.4323L148.662 77.3018Z" fill="#663326"/>
<path d="M179.02 99.7007C179.012 99.7906 178.986 99.8779 178.943 99.9572C178.9 100.037 178.842 100.106 178.771 100.162C178.7 100.217 178.618 100.258 178.531 100.28C178.444 100.303 178.353 100.307 178.264 100.293L162.174 99.226C162.084 99.2283 161.995 99.212 161.911 99.1781C161.828 99.1441 161.752 99.0932 161.689 99.0287C161.626 98.9641 161.577 98.8872 161.545 98.8028C161.513 98.7183 161.499 98.6282 161.503 98.5381L179.02 99.7007Z" fill="#808080"/>
<path d="M178.583 99.6795L176.911 98.9168L163.372 98.0049L161.492 98.5275L178.583 99.6795Z" fill="#D3CDCD"/>
<path d="M185.616 86.1241L178.934 99.99C178.812 100.251 178.402 99.99 178.402 99.99L185.51 85.3135C185.609 85.4207 185.673 85.5564 185.692 85.7017C185.711 85.847 185.685 85.9947 185.616 86.1241V86.1241Z" fill="#B3B3B3"/>
<path d="M185.526 85.3457L182.614 87.5483L176.911 98.9183L178.583 99.6809L185.526 85.3457Z" fill="#131213"/>
<path d="M175.004 99.2358L176.064 99.3052L175.398 98.8145L174.547 98.7559L175.004 99.2358Z" fill="#606060"/>
<path d="M173.812 99.1573L174.877 99.2267L174.446 98.752L173.594 98.6934L173.812 99.1573Z" fill="#606060"/>
<path d="M172.62 99.0769L173.684 99.1462L173.487 98.6876L172.635 98.6289L172.62 99.0769Z" fill="#606060"/>
<path d="M171.427 98.9964L172.492 99.0658L172.534 98.6231L171.683 98.5645L171.427 98.9964Z" fill="#606060"/>
<path d="M170.235 98.9116L171.3 98.9863L171.577 98.5543L170.725 98.501L170.235 98.9116Z" fill="#606060"/>
<path d="M169.042 98.8331L170.107 98.9078L170.623 98.4918L169.771 98.4385L169.042 98.8331Z" fill="#606060"/>
<path d="M177.217 100.086L177.843 100.128C177.864 100.13 177.882 100.114 177.883 100.094L177.896 99.8967C177.898 99.8762 177.882 99.8584 177.862 99.857L177.235 99.8147C177.214 99.8133 177.197 99.8289 177.195 99.8495L177.182 100.046C177.181 100.067 177.196 100.085 177.217 100.086Z" fill="#131213"/>
<path d="M176.247 100.017L176.874 100.059C176.894 100.06 176.912 100.045 176.913 100.024L176.926 99.8274C176.928 99.8068 176.912 99.789 176.892 99.7876L176.265 99.7454C176.244 99.744 176.227 99.7596 176.225 99.7801L176.212 99.977C176.211 99.9976 176.226 100.015 176.247 100.017Z" fill="#131213"/>
<path d="M148.677 79.8024C148.489 79.6554 148.271 79.55 148.039 79.493C147.807 79.4361 147.565 79.4288 147.33 79.4717C146.831 79.5727 146.389 79.8594 146.093 80.2741C145.796 80.6887 145.668 81.2005 145.733 81.7063C145.733 81.7063 146.654 83.1995 146.196 84.2874L145.893 84.9381C145.881 84.9591 145.863 84.9766 145.842 84.9887C145.821 85.0009 145.797 85.0072 145.773 85.0072C145.749 85.0072 145.725 85.0009 145.704 84.9887C145.683 84.9766 145.665 84.9591 145.653 84.9381C145.312 84.4848 144.988 84.3034 144.711 84.3408C144.349 84.3888 143.955 84.7568 144.232 85.706C144.508 86.6553 145.174 86.3087 145.174 86.3087C144.971 86.5451 144.83 86.8278 144.762 87.132C144.694 87.4361 144.702 87.7523 144.785 88.0526C144.689 87.9886 143.502 87.066 143.502 87.066C140.223 84.5114 140.063 78.8104 144.615 77.5251C148.001 76.5705 150.12 78.3464 151.004 80.245C150.232 80.8156 149.14 80.0583 148.677 79.7757" fill="#663326"/>
<path d="M140.883 77.7553C136.309 79.5579 139.392 86.4162 139.775 88.752C140.159 91.0879 139.334 92.1012 139.898 93.8025C140.462 95.5037 141.405 94.8371 142.422 94.4744C143.438 94.1118 145.291 94.6557 146.292 93.6051C147.293 92.5545 146.292 89.696 145.946 88.992C145.6 88.2881 143.816 85.9895 143.955 84.9816C144.258 82.8484 145.728 85.0403 145.808 84.9816C146.766 84.5016 146.963 83.499 146.495 82.4271C146.26 81.8937 146.899 81.8937 146.963 81.8937C149.396 83.6323 147.676 81.1525 148.56 80.8752C148.665 80.8402 148.762 80.7849 148.846 80.7123C148.929 80.6398 148.998 80.5515 149.047 80.4524C149.097 80.3533 149.126 80.2455 149.134 80.135C149.142 80.0245 149.128 79.9136 149.093 79.8085C148.661 78.39 150.344 77.4673 147.208 76.7794C142.459 75.7128 140.894 77.718 140.894 77.718" fill="#663326"/>
<path d="M145.153 86.3359C145.153 86.3359 148.118 89.2158 146.638 92.9116L143.326 89.7384L143.539 86.9012L144.647 86.6559L145.153 86.3359Z" fill="#663326"/>
<path d="M142.554 97.5694C142.107 97.1697 141.836 96.6099 141.798 96.011C141.76 95.4122 141.959 94.8225 142.352 94.3696C142.937 93.6976 143.347 93.3883 144.157 93.5963L144.641 93.6603C144.641 93.6603 152.068 96.1241 153.341 96.5881C154.033 96.8441 159.038 95.7615 166.183 94.9029L169.047 94.5669C169.758 94.4873 170.477 94.5233 171.177 94.6735L172.151 94.8815C172.398 94.9343 172.637 95.0167 172.864 95.1268L173.961 95.6601C174.023 95.6966 174.07 95.7545 174.092 95.8229C174.114 95.8913 174.11 95.9654 174.081 96.0312C174.052 96.097 174 96.1499 173.935 96.1798C173.87 96.2097 173.796 96.2145 173.727 96.1935L172.172 95.6282C172.098 95.6005 172.022 95.5809 171.943 95.5695L171.033 95.5055L173.695 96.7588C173.772 96.792 173.833 96.8545 173.864 96.9325C173.895 97.0105 173.893 97.0977 173.86 97.1747C173.827 97.2518 173.765 97.3125 173.687 97.3436C173.609 97.3746 173.522 97.3733 173.445 97.3401L170.463 96.0121L172.902 97.3987C172.965 97.4334 173.013 97.4919 173.033 97.5614C173.053 97.6309 173.046 97.7057 173.011 97.7694C172.976 97.833 172.918 97.8803 172.848 97.9008C172.779 97.9213 172.704 97.9134 172.641 97.8787L170.458 96.9081C170.458 96.9081 170.421 96.9081 170.458 96.9401L171.89 97.9374C171.926 97.9619 171.955 97.9938 171.978 98.0308C172 98.0678 172.014 98.1091 172.019 98.152C172.024 98.1949 172.02 98.2383 172.007 98.2795C171.994 98.3207 171.972 98.3585 171.943 98.3907C171.897 98.447 171.832 98.4842 171.76 98.495C171.689 98.5059 171.615 98.4896 171.555 98.4494L170.389 97.7294C169.979 97.4772 169.506 97.3477 169.026 97.3561C168.395 97.3697 167.765 97.3016 167.152 97.1534L166.619 96.9294C166.476 96.8707 166.315 96.8707 166.172 96.9294C159.517 99.5959 154.959 100.46 153.25 100.407C150.429 100.316 143.608 98.0067 143.608 98.0067H143.268C143.037 97.9042 142.831 97.7553 142.661 97.5694" fill="#FABE78"/>
<path opacity="0.21" d="M164.208 95.5877C164.208 95.5877 164.597 95.5557 164.703 95.7957C164.81 96.352 164.877 96.9152 164.906 97.4809C164.906 97.4809 164.932 97.5502 164.788 97.6089C164.645 97.6676 158.959 100.43 158.128 100.713L157.936 100.771C157.313 100.931 153.933 101.779 152.974 101.715C152.128 101.662 145.835 99.6835 143.391 98.8995C143.05 98.7887 142.737 98.6049 142.474 98.3609C142.211 98.1168 142.004 97.8184 141.868 97.4862C141.605 96.9971 141.512 96.4344 141.602 95.8863C141.905 95.1237 142.31 94.0891 143.146 93.5984C143.982 93.1078 144.679 93.4438 145.212 93.5984C145.744 93.7531 151.856 96.5476 152.367 96.649C152.878 96.7503 164.208 95.5877 164.208 95.5877Z" fill="black"/>
<path d="M164.208 94.8715C164.208 94.8715 164.597 94.8448 164.703 95.0795C164.81 95.3141 165.172 97.458 165.172 97.458C165.172 97.458 165.172 97.5327 165.049 97.5913C164.927 97.65 158.958 99.7246 158.128 100.002L157.936 100.061C157.313 100.215 153.932 101.063 152.974 101.004C152.128 100.946 145.834 98.9673 143.391 98.1833C143.049 98.0747 142.736 97.8923 142.473 97.649C142.21 97.4057 142.003 97.1075 141.868 96.7754C141.607 96.2857 141.513 95.7236 141.602 95.1755C141.905 94.4128 142.31 93.3835 143.146 92.8929C143.982 92.4023 144.679 92.7329 145.211 92.8929C145.744 93.0529 151.856 95.8368 152.367 95.9381C152.878 96.0394 164.208 94.8715 164.208 94.8715Z" fill="#00CBC1"/>
<path d="M162.807 95.0173L152.862 96.0092C152.862 96.0092 152.393 96.1052 151.206 95.5133C150.019 94.9213 148.246 94.2227 148.246 94.2227" stroke="black" stroke-width="0.13" stroke-linecap="round" stroke-linejoin="round"/>
<path d="M48.8144 0.985352H19.2547V7.79041H30.6451V37.4393H37.424V7.79041H48.8144V0.985352Z" fill="black"/>
<path d="M81.7312 25.8979C81.7312 28.6593 79.5017 30.898 76.7506 30.898C73.9999 30.898 71.7699 28.6593 71.7699 25.8979V10.666H64.9912V25.8979C64.9912 32.4177 70.256 37.7031 76.7506 37.7031C83.2451 37.7031 88.5099 32.4177 88.5099 25.8979V10.666H81.7312V25.8979V25.8979Z" fill="black"/>
<path d="M53.5902 13.0379V10.6655H46.8115V37.4391H53.5902V24.3589C53.5902 18.7342 57.98 16.4838 62.3154 17.5974V10.3665C57.5195 9.98436 54.9116 11.3479 53.5902 13.0379Z" fill="black"/>
<path fill-rule="evenodd" clip-rule="evenodd" d="M110.779 27.9819C110.794 27.9607 110.808 27.9425 110.819 27.9277L115.631 31.7607C115.628 31.7644 115.622 31.7743 115.612 31.7897C115.316 32.2486 111.806 37.6808 104.467 37.6808C96.5073 37.6808 90.1414 30.8304 90.9006 22.682C91.5597 15.6074 97.7148 10.1609 104.791 10.3229C114.637 10.5482 119.112 20.0058 117.845 26.6032H98.1205C98.8669 29.3886 101.617 31.1356 104.467 31.1356C108.453 31.1356 110.374 28.5312 110.779 27.9819ZM110.841 21.1591C109.943 18.591 107.79 16.6174 104.54 16.6174C101.29 16.6174 99.0561 18.591 98.1174 21.1591H110.841Z" fill="black"/>
<path d="M128.192 19.0515V19.0515C128.216 12.7515 133.311 7.36578 139.655 7.16915C143.862 7.03868 147.592 9.11422 149.792 12.3277L155.32 8.45069C152.707 4.55762 147.477 0.356445 140.03 0.356445C129.745 0.356445 121.414 8.72714 121.413 19.0515H121.413C121.413 19.0516 121.413 19.0517 121.413 19.0519H128.192C128.192 19.0517 128.192 19.0516 128.192 19.0515Z" fill="#0090F0"/>
<path d="M139.041 30.8992C133.623 30.4576 128.169 25.2624 128.192 19.0518H121.413C121.414 29.1294 129.445 37.3238 139.241 37.73C145.193 37.9769 150.317 35.5472 153.855 31.3719L149.085 26.5874C148.636 26.9524 145.57 31.4315 139.041 30.8992Z" fill="#06AEAA"/>
<ellipse cx="151.244" cy="29.2115" rx="3.38972" ry="3.40289" fill="#3AF0B6"/>
<ellipse cx="124.803" cy="19.0523" rx="3.38972" ry="3.40289" fill="#06CFFF"/>
<rect x="176.595" y="10.665" width="6.77876" height="13.3868" fill="#DB0000"/>
<path fill-rule="evenodd" clip-rule="evenodd" d="M156.094 24.0427C156.094 16.0845 162.189 10.7219 168.275 10.4149C179.167 9.86533 183.428 20.6038 183.374 24.0427C183.374 27.3217 178.854 38.3713 168.27 37.6705C161.344 37.212 156.094 31.6052 156.094 24.0427ZM162.875 24.0427C162.875 27.8457 165.946 30.9287 169.734 30.9287C173.522 30.9287 176.594 27.8457 176.594 24.0427C176.594 20.2397 173.522 17.1567 169.734 17.1567C165.946 17.1567 162.875 20.2397 162.875 24.0427Z" fill="#FF6400"/>
<rect x="176.595" y="24.0518" width="6.77876" height="13.3868" fill="#DB0000"/>
<ellipse cx="179.985" cy="24.0435" rx="3.38972" ry="3.40288" fill="#FF9C63"/>
<rect x="187.958" y="10.665" width="6.73596" height="26.7736" fill="#EB008B"/>
<path d="M187.958 37.4389H194.737L194.694 24.048C194.694 20.2425 197.767 17.1576 201.558 17.1576C202.032 17.1576 202.029 17.183 202.475 17.2748L203.878 10.6752C195.585 8.99609 187.958 15.6749 187.958 24.048V37.4389H187.958Z" fill="#9A09CB"/>
<ellipse cx="202.981" cy="13.9319" rx="3.368" ry="3.38108" fill="#FC3896"/>
<path fill-rule="evenodd" clip-rule="evenodd" d="M212.204 7.49412C212.204 7.97641 211.93 8.27906 211.516 8.412L212.354 9.716H211.94L211.148 8.47708H211.045H210.461V9.716H210.102V6.50977H211.045C211.704 6.50977 212.204 6.84073 212.204 7.49412ZM210.461 8.14612H211.026C211.544 8.14612 211.855 7.92832 211.855 7.49412C211.855 7.05853 211.544 6.85062 211.026 6.85062H210.461V8.14612Z" fill="black"/>
<path fill-rule="evenodd" clip-rule="evenodd" d="M208.562 8.11269C208.562 6.70318 209.701 5.56055 211.105 5.56055C212.509 5.56055 213.647 6.70318 213.647 8.11269C213.647 9.52219 212.509 10.6648 211.105 10.6648C209.701 10.6648 208.562 9.52219 208.562 8.11269ZM213.304 8.11269C213.304 6.89547 212.317 5.90518 211.105 5.90518C209.892 5.90518 208.906 6.89547 208.906 8.11269C208.906 9.32991 209.892 10.3202 211.105 10.3202C212.317 10.3202 213.304 9.32991 213.304 8.11269Z" fill="black"/>
</svg>
